<svg xmlns="http://www.w3.org/2000/svg" version="1.1" xmlns:xlink="http://www.w3.org/1999/xlink" xmlns:svgjs="http://svgjs.com/svgjs" height="161.25708167285808" width="258.3599853515625"><defs id="SvgjsDefs3251"></defs><g id="SvgjsG3252" rel="mainfill" name="main_text" xmlns:name="main_text" transform="translate(-1.2300000190734863,-110.23290856151692)" fill="#000000"><path d="M16.89 221.84L16.89 219.47C16.89 218.61 16.57 218.16 15.87 218.16L9.78 218.16L9.78 217.01C9.78 214.35 10.76 213.41 13.38 213.41C14.77 213.41 15.95 213.57 16.94 213.94C17.34 213.41 17.55 212.76 17.55 211.98C17.55 211.45 16.98 210.96 15.87 210.42C14.77 209.89 13.58 209.65 12.27 209.65C7.98 209.65 5.36 212.18 5.36 217.13L5.36 218.16L1.51 218.16C1.31 218.85 1.23 219.63 1.23 220.53C1.23 221.39 1.55 221.84 2.25 221.84L5.36 221.84L5.36 238.98C5.36 239.67 5.81 240 6.67 240L9.78 240L9.78 221.84ZM21.03 234.97C21.03 238.77 22.74 240.29 25.03 240.29C26.83 240.29 28.10 239.26 28.10 238.28C28.10 237.75 28.02 237.22 27.86 236.73L26.83 236.73C25.89 236.73 25.44 235.99 25.44 234.56L25.44 218.89C25.44 218.20 24.99 217.87 24.09 217.87C23.03 217.87 22.01 217.99 21.03 218.28ZM23.19 215.17C24.71 215.17 25.73 214.19 25.73 212.59C25.73 210.96 24.54 209.85 23.07 209.85C21.60 209.85 20.58 210.83 20.58 212.43C20.58 214.07 21.76 215.17 23.19 215.17ZM47.12 218.40C46.18 217.91 45.04 217.67 43.61 217.67C40.82 217.67 38.57 219.06 37.31 221.31L37.31 218.89C37.31 218.20 36.86 217.87 35.96 217.87C34.89 217.87 33.87 217.99 32.89 218.28L32.89 238.98C32.89 239.67 33.34 240 34.20 240L37.31 240L37.31 226.01C38.00 222.94 39.72 221.43 42.42 221.43C43.89 221.43 45.12 221.80 46.14 222.53C47.00 222.04 47.66 221.43 48.11 220.73C48.27 220.45 48.35 220.20 48.35 219.96C48.35 219.34 47.94 218.81 47.12 218.40ZM67.86 235.50C66.23 236.32 64.47 236.73 62.55 236.73C58.58 236.73 55.84 234.68 55.35 230.88L66.60 230.88C68.35 230.88 69.17 230.43 69.83 229.08C70.28 228.10 70.52 226.95 70.52 225.60C70.52 223.31 69.70 221.43 68.07 219.92C66.47 218.40 64.35 217.67 61.77 217.67C58.66 217.67 56.04 218.69 53.96 220.77C51.87 222.86 50.81 225.64 50.81 229.16C50.81 232.47 51.83 235.17 53.87 237.30C55.96 239.43 58.58 240.49 61.77 240.49C63.69 240.49 65.29 240.16 66.55 239.51C67.82 238.81 68.48 238.12 68.48 237.42C68.48 236.65 68.27 236.03 67.86 235.50ZM61.52 221.43C64.51 221.43 66.19 223.11 66.19 225.85C66.19 226.38 66.10 226.83 65.90 227.20L55.39 227.20C55.88 223.60 58.21 221.43 61.52 221.43ZM102.06 218.16C101.12 224.86 99.65 230.71 97.64 235.75L93.35 219.34C93.14 218.57 92.57 218.16 91.67 218.16L87.74 218.16C86.80 224.86 85.33 230.71 83.33 235.75L78.83 218.57C78.70 218.12 78.38 217.87 77.80 217.87C76.82 217.87 75.68 218.32 74.33 219.22L80.46 240L84.68 240C85.45 240 85.94 239.71 86.15 239.18C88.23 233.90 89.71 228.55 90.57 223.19L94.78 240L99.03 240C99.85 240 100.38 239.67 100.63 239.06C103.33 232.84 105.29 226.26 106.48 219.30C106.60 218.61 106.23 218.16 105.29 218.16L102.06 218.16ZM128.90 220.73C126.81 218.69 124.27 217.67 121.21 217.67C118.14 217.67 115.60 218.69 113.51 220.73C111.43 222.78 110.41 225.56 110.41 229.08C110.41 232.60 111.43 235.38 113.51 237.42C115.60 239.47 118.14 240.49 121.21 240.49C124.27 240.49 126.81 239.47 128.90 237.42C130.98 235.38 132.00 232.60 132.00 229.08C132.00 225.56 130.98 222.78 128.90 220.73ZM116.62 223.31C117.81 222.04 119.28 221.43 121.04 221.43C122.80 221.43 124.31 222.12 125.58 223.56C126.85 224.95 127.50 226.87 127.50 229.32C127.50 231.78 126.93 233.62 125.75 234.89C124.60 236.11 123.13 236.73 121.37 236.73C119.61 236.73 118.06 236.03 116.79 234.64C115.52 233.21 114.91 231.29 114.91 228.83C114.91 226.38 115.48 224.54 116.62 223.31ZM151.56 218.40C150.62 217.91 149.47 217.67 148.04 217.67C145.26 217.67 143.01 219.06 141.74 221.31L141.74 218.89C141.74 218.20 141.29 217.87 140.39 217.87C139.33 217.87 138.30 217.99 137.32 218.28L137.32 238.98C137.32 239.67 137.77 240 138.63 240L141.74 240L141.74 226.01C142.44 222.94 144.15 221.43 146.85 221.43C148.33 221.43 149.55 221.80 150.58 222.53C151.43 222.04 152.09 221.43 152.54 220.73C152.70 220.45 152.78 220.20 152.78 219.96C152.78 219.34 152.38 218.81 151.56 218.40ZM160.88 232.27C161.87 231.74 162.77 231.25 163.62 230.71C164.97 233.05 166.45 235.21 168.08 237.22C169.76 239.26 171.40 240.29 172.91 240.29C174.71 240.29 175.98 239.26 175.98 238.28C175.98 237.75 175.90 237.22 175.73 236.73L174.92 236.73C174.26 236.73 173.44 236.24 172.50 235.30C170.66 233.46 168.86 231.21 167.06 228.46C170.87 225.68 173.28 223.31 174.30 221.31C174.47 220.94 174.55 220.61 174.55 220.32C174.55 219.34 173.81 218.69 171.56 217.87C170.37 219.71 168.74 221.55 166.73 223.39C164.73 225.23 162.81 226.75 160.88 227.89L160.88 210.87C160.88 210.18 160.43 209.85 159.53 209.85C158.47 209.85 157.45 209.97 156.47 210.26L156.47 238.98C156.47 239.67 156.92 240 157.78 240L160.88 240ZM191.52 224.54C192.63 224.46 193.61 224.17 194.43 223.64C195.00 223.27 195.29 222.90 195.29 222.45C195.29 222.12 195.20 221.76 195.00 221.39C193.73 219.10 190.83 217.67 187.43 217.67C182.65 217.67 179.46 220.24 179.46 224.13C179.46 227.77 181.83 230.14 187.11 231.33C190.05 232.02 190.99 232.80 190.99 234.31C190.99 235.91 189.60 236.73 186.78 236.73C184.61 236.73 182.56 236.28 180.64 235.38C180.23 235.91 180.03 236.56 180.03 237.34C180.03 238.04 180.76 238.77 182.20 239.47C183.63 240.16 185.35 240.49 187.35 240.49C192.46 240.49 195.41 238.04 195.41 234.15C195.41 230.76 193.24 228.75 188.62 227.61C185.22 226.75 183.87 225.85 183.87 224.01C183.87 222.53 185.14 221.43 187.31 221.43C189.40 221.43 190.99 222.57 191.52 224.54ZM204.29 240.49C205.92 240.49 207.03 239.39 207.03 237.71C207.03 235.91 205.72 234.68 204.12 234.68C202.49 234.68 201.38 235.79 201.38 237.46C201.38 239.26 202.69 240.49 204.29 240.49ZM223.80 240.49C227.11 240.49 229.85 239.35 231.94 237.05C234.07 234.72 235.13 231.82 235.13 228.26C235.13 225.07 234.23 222.49 232.47 220.57C230.71 218.65 228.50 217.67 225.84 217.67C222.94 217.67 220.48 218.81 218.56 221.06L218.56 210.87C218.56 210.18 218.11 209.85 217.21 209.85C216.15 209.85 215.13 209.97 214.14 210.26L214.14 230.51C214.14 233.58 215.00 236.03 216.72 237.83C218.48 239.59 220.81 240.49 223.80 240.49ZM224.62 221.39C228.17 221.39 230.63 223.68 230.63 228.46C230.63 230.88 229.97 232.88 228.62 234.44C227.32 235.95 225.72 236.73 223.84 236.73C220.85 236.73 218.56 234.56 218.56 230.51L218.56 224.37C220.20 222.61 222.53 221.39 224.62 221.39ZM248.55 250.14C252.06 250.14 254.76 249.16 256.69 247.20C258.61 245.24 259.59 242.86 259.59 240.12L259.59 219.18C259.59 218.48 259.14 218.16 258.28 218.16L255.17 218.16L255.17 234.52C253.62 235.99 251.70 236.73 249.45 236.73C246.34 236.73 244.78 234.89 244.78 231.25L244.78 218.89C244.78 218.20 244.33 217.87 243.43 217.87C242.37 217.87 241.35 217.99 240.37 218.28L240.37 231.21C240.37 235.25 241.59 238.04 244.05 239.47C241.76 240.82 240.61 242.54 240.61 244.54C240.61 247.77 243.64 250.14 248.55 250.14ZM248.18 240.49C250.80 240.49 253.50 239.35 255.17 237.59L255.17 240.53C255.17 242.37 254.52 243.85 253.25 244.87C251.98 245.93 250.43 246.46 248.67 246.46C246.34 246.46 245.03 245.44 245.03 243.93C245.03 242.58 245.64 241.39 246.83 240.37C247.24 240.45 247.69 240.49 248.18 240.49Z" fill="#000000" style="fill: rgb(0, 0, 0);"></path></g><g id="SvgjsG3253" rel="mainfill" name="slogan_text" xmlns:name="slogan_text" transform="translate(54.284989930689335,-78.86291344432942)" fill="#333333"><path d="M7.49 240L7.49 231.36L1.80 231.36L1.44 237.13C1.39 237.97 1.21 238.44 0.53 238.44C0.40 238.44 0.26 238.43 0.13 238.42L-0.10 240.06C0.08 240.10 0.26 240.12 0.41 240.12C2.38 240.12 3.29 239.45 3.42 237.42L3.70 232.99L5.45 232.99L5.45 240ZM17.22 231.36L15.07 231.36L13.27 234.68L11.53 231.36L9.38 231.36L12.25 236.52L10.34 240L12.49 240ZM25.42 240L25.42 231.36L23.57 231.36L23.57 234.83C23.09 235.02 22.64 235.10 22.26 235.10C21.26 235.10 20.68 234.48 20.68 233.45L20.68 231.36L18.65 231.36L18.65 233.84C18.65 235.94 20.14 236.76 22.07 236.76C22.63 236.76 23.14 236.68 23.57 236.52L23.57 240ZM38.23 240L38.23 231.36L36.20 231.36L36.20 238.37L34.34 238.37L34.34 231.36L32.32 231.36L32.32 238.37L30.46 238.37L30.46 231.36L28.43 231.36L28.43 240ZM48.35 240L48.35 231.36L46.18 231.36L43.02 237.02L43.02 231.36L41.23 231.36L41.23 240L43.44 240L46.57 234.36L46.57 240ZM53.39 232.99L56.56 232.99L56.56 231.36L51.36 231.36L51.36 240L56.62 240L56.62 238.37L53.39 238.37L53.39 236.38L56.45 236.38L56.45 234.74L53.39 234.74ZM68.32 240.12L68.32 238.86C70.27 238.63 71.93 237.64 71.93 235.66C71.93 233.58 70.55 232.69 68.32 232.49L68.32 231.24L66.29 231.24L66.29 232.49C64.19 232.68 62.68 233.66 62.68 235.88C62.68 237.52 64.21 238.62 66.29 238.86L66.29 240.12ZM66.29 237.18C65.23 237.02 64.70 236.45 64.70 235.66C64.70 234.80 65.24 234.38 66.29 234.20ZM68.32 234.20C69.36 234.38 69.90 234.80 69.90 235.87C69.90 236.68 69.28 237.10 68.32 237.18ZM76.36 232.99L79.52 232.99L79.52 231.36L74.33 231.36L74.33 240L79.58 240L79.58 238.37L76.36 238.37L76.36 236.38L79.42 236.38L79.42 234.74L76.36 234.74ZM86.52 228.77C86.46 229.24 86.29 229.62 85.84 229.62C85.38 229.62 85.20 229.19 85.18 228.77L83.84 228.77C83.90 230.00 84.54 230.93 85.72 230.93C87.00 230.93 87.76 230.06 87.84 228.77ZM89.40 240L89.40 231.36L87.23 231.36L84.07 237.02L84.07 231.36L82.28 231.36L82.28 240L84.49 240L87.62 234.36L87.62 240ZM94.44 232.99L97.61 232.99L97.61 231.36L92.41 231.36L92.41 240L97.67 240L97.67 238.37L94.44 238.37L94.44 236.38L97.50 236.38L97.50 234.74L94.44 234.74ZM102.40 236.78L102.76 236.78C104.51 236.78 106.36 235.69 106.36 233.78C106.36 231.84 104.64 231.24 102.97 231.24C101.82 231.24 100.91 231.34 100.37 231.43L100.37 240L102.40 240ZM102.40 232.98C102.55 232.94 102.73 232.92 102.86 232.92C103.72 232.92 104.21 233.27 104.21 234.01C104.21 234.73 103.55 235.15 102.83 235.15L102.40 235.15ZM108.67 240C109.61 240.10 110.18 240.12 111.24 240.12C113.30 240.12 115.02 239.22 115.02 237.31C115.02 236.27 114.36 235.46 113.33 235.28L113.35 235.24C113.96 234.97 114.64 234.43 114.64 233.45C114.64 231.92 113.11 231.24 111.50 231.24C110.56 231.24 109.72 231.35 108.67 231.52ZM110.70 236.35C111.07 236.30 111.24 236.29 111.53 236.29C112.25 236.29 112.87 236.72 112.87 237.47C112.87 238.19 112.15 238.50 111.40 238.50C111.28 238.50 110.93 238.49 110.70 238.46ZM110.70 232.92C111.01 232.87 111.25 232.86 111.37 232.86C112.04 232.86 112.49 233.08 112.49 233.72C112.49 234.37 111.95 234.79 111.23 234.79L110.70 234.79ZM119.57 232.99L122.74 232.99L122.74 231.36L117.54 231.36L117.54 240L122.80 240L122.80 238.37L119.57 238.37L119.57 236.38L122.63 236.38L122.63 234.74L119.57 234.74ZM127.52 236.78L127.88 236.78C129.64 236.78 131.48 235.69 131.48 233.78C131.48 231.84 129.77 231.24 128.10 231.24C126.95 231.24 126.04 231.34 125.50 231.43L125.50 240L127.52 240ZM127.52 232.98C127.68 232.94 127.86 232.92 127.99 232.92C128.84 232.92 129.34 233.27 129.34 234.01C129.34 234.73 128.68 235.15 127.96 235.15L127.52 235.15ZM140.78 240L137.75 235.37L139.22 233.27C139.44 232.96 139.72 232.80 139.99 232.80C140.16 232.80 140.33 232.86 140.48 232.97L140.81 231.60C140.41 231.40 139.93 231.25 139.45 231.25C138.84 231.25 138.23 231.48 137.78 232.13L135.83 234.96L135.83 231.36L133.80 231.36L133.80 240L135.83 240L135.83 235.96L138.41 240ZM149.89 240L149.89 231.36L147.72 231.36L144.56 237.02L144.56 231.36L142.78 231.36L142.78 240L144.98 240L148.12 234.36L148.12 240Z" fill="#333333" style="fill: rgb(51, 51, 51);"></path></g><g id="SvgjsG3254" rel="mainfill" name="symbol" xmlns:name="symbol_mainfill" transform="translate(79.18470013906347,-6.307023616980326) scale(0.970311325689281)" fill="#e77f31"><g fill="#e77f31"><path d="M55,67.4c-0.5-0.1-1,0.3-1.1,0.8c-0.2,1.1-0.4,2.3-0.5,3.5c-0.3,2.9-0.5,5.9-0.5,9c0,0.5,0.4,1,1,1s1-0.4,1-1   c0-3,0.2-5.9,0.5-8.7c0.1-1.1,0.3-2.3,0.5-3.4C55.9,68,55.6,67.5,55,67.4z" fill="#e77f31" style="fill: rgb(231, 127, 49);"></path><path d="M78.9,37.2c0.5-0.2,0.8-0.8,0.6-1.3c-0.2-0.5-0.8-0.8-1.3-0.6c-11.9,4.5-20,14.6-23.5,28.9c-0.1,0.5,0.2,1,0.7,1.2   c0.1,0,0.2,0,0.2,0c0.4,0,0.8-0.3,0.9-0.7C58.9,55.2,64.6,42.6,78.9,37.2z" fill="#e77f31" style="fill: rgb(231, 127, 49);"></path><path d="M70.7,54.8c-8.6,8.3-13.3,21.7-13.3,37.7c0,0.5,0.4,1,1,1s1-0.4,1-1c0-15.5,4.5-28.4,12.7-36.3c0.4-0.4,0.4-1,0-1.4   C71.7,54.4,71.1,54.4,70.7,54.8z" fill="#e77f31" style="fill: rgb(231, 127, 49);"></path><path d="M28,28.2c-0.4,0.3-0.5,0.9-0.2,1.4c11.8,15.7,18.1,29.9,17.4,59.3c0,0.5,0.4,1,0.9,1c0,0,0,0,0,0c0.5,0,1-0.4,1-0.9   c0.8-29.9-5.9-44.8-17.7-60.6C29,27.9,28.4,27.8,28,28.2z" fill="#e77f31" style="fill: rgb(231, 127, 49);"></path><path d="M48.7,52.3c-0.3,0-0.5,0.3-0.4,0.5c0.4,4.7,0.5,9.8,0.3,15.5c0,0.3,0.2,0.5,0.5,0.5c0,0,0,0,0,0c0.3,0,0.5-0.2,0.5-0.5   c0.1-5.8,0-10.9-0.3-15.7C49.2,52.5,48.9,52.3,48.7,52.3z" fill="#e77f31" style="fill: rgb(231, 127, 49);"></path><path d="M38.1,19.1c0.4,0.6,0.7,1.3,1.1,1.9c2.2,4,4,8,5.3,12.2c0.1,0.2,0.3,0.3,0.5,0.3c0,0,0.1,0,0.2,0c0.3-0.1,0.4-0.4,0.3-0.6   c-1.4-4.3-3.2-8.3-5.4-12.4c-0.4-0.7-0.7-1.3-1.1-1.9c-0.1-0.2-0.4-0.3-0.7-0.2C38,18.6,37.9,18.9,38.1,19.1z" fill="#e77f31" style="fill: rgb(231, 127, 49);"></path><path d="M37.2,17.6c0.1,0.1,0.3,0.2,0.4,0.2c0.1,0,0.2,0,0.3-0.1c0.2-0.1,0.3-0.4,0.2-0.7c-0.4-0.7-0.9-1.4-1.4-2.2   c-0.1-0.2-0.4-0.3-0.7-0.1c-0.2,0.1-0.3,0.4-0.1,0.7C36.3,16.2,36.7,16.9,37.2,17.6z" fill="#e77f31" style="fill: rgb(231, 127, 49);"></path><path d="M34.8,14c0.1,0.1,0.2,0.2,0.4,0.2c0.1,0,0.2,0,0.3-0.1c0.2-0.1,0.3-0.5,0.1-0.7c-1.2-1.8-2.5-3.6-3.9-5.5   c-0.2-0.2-0.5-0.3-0.7-0.1s-0.3,0.5-0.1,0.7C32.3,10.4,33.6,12.2,34.8,14z" fill="#e77f31" style="fill: rgb(231, 127, 49);"></path><path d="M64.8,19c0.3,0,0.5-0.2,0.5-0.5V17c0-0.3-0.2-0.5-0.5-0.5s-0.5,0.2-0.5,0.5v1.5C64.3,18.8,64.5,19,64.8,19z" fill="#e77f31" style="fill: rgb(231, 127, 49);"></path><path d="M64.8,15.3c0.3,0,0.5-0.2,0.5-0.5v-3.1c0-0.3-0.2-0.5-0.5-0.5s-0.5,0.2-0.5,0.5v3.1C64.3,15.1,64.5,15.3,64.8,15.3z" fill="#e77f31" style="fill: rgb(231, 127, 49);"></path><path d="M53.9,25.3h1.8c0.3,0,0.5-0.2,0.5-0.5s-0.2-0.5-0.5-0.5h-1.8c-0.3,0-0.5,0.2-0.5,0.5S53.6,25.3,53.9,25.3z" fill="#e77f31" style="fill: rgb(231, 127, 49);"></path><path d="M57.9,25.3h5.7l-5.2,5.2c-0.2,0.2-0.2,0.5,0,0.7c0.1,0.1,0.2,0.1,0.3,0.1s0.2,0,0.3-0.1l5.2-5.2v12.4   c0,0.3,0.2,0.5,0.5,0.5s0.5-0.2,0.5-0.5V26l5.2,5.2c0.1,0.1,0.2,0.1,0.3,0.1s0.2,0,0.3-0.1c0.2-0.2,0.2-0.5,0-0.7l-5.2-5.2h4.2   c0.3,0,0.5-0.2,0.5-0.5s-0.2-0.5-0.5-0.5h-4.2l5.2-5.2c0.2-0.2,0.2-0.5,0-0.7c-0.2-0.2-0.5-0.2-0.7,0l-5.2,5.2v-2.6   c0-0.3-0.2-0.5-0.5-0.5s-0.5,0.2-0.5,0.5v2.6l-5.2-5.2c-0.2-0.2-0.5-0.2-0.7,0c-0.2,0.2-0.2,0.5,0,0.7l5.2,5.2h-5.7   c-0.3,0-0.5,0.2-0.5,0.5S57.6,25.3,57.9,25.3z" fill="#e77f31" style="fill: rgb(231, 127, 49);"></path><path d="M72.7,25.3h3c0.3,0,0.5-0.2,0.5-0.5s-0.2-0.5-0.5-0.5h-3c-0.3,0-0.5,0.2-0.5,0.5S72.4,25.3,72.7,25.3z" fill="#e77f31" style="fill: rgb(231, 127, 49);"></path><path d="M44.4,17.9c0.1,0,0.2,0,0.3-0.1l0.7-0.7c0.2-0.2,0.2-0.5,0-0.7s-0.5-0.2-0.7,0L44,17c-0.2,0.2-0.2,0.5,0,0.7   C44.1,17.8,44.2,17.9,44.4,17.9z" fill="#e77f31" style="fill: rgb(231, 127, 49);"></path><path d="M51.9,10.3c0.1,0,0.2,0,0.3-0.1l0.7-0.7c0.2-0.2,0.2-0.5,0-0.7c-0.2-0.2-0.5-0.2-0.7,0l-0.7,0.7c-0.2,0.2-0.2,0.5,0,0.7   C51.7,10.3,51.8,10.3,51.9,10.3z" fill="#e77f31" style="fill: rgb(231, 127, 49);"></path><path d="M47.2,12.9h-0.7c-0.3,0-0.5,0.2-0.5,0.5s0.2,0.5,0.5,0.5h0.7l-1.3,1.3c-0.2,0.2-0.2,0.5,0,0.7c0.1,0.1,0.2,0.1,0.3,0.1   c0.1,0,0.2,0,0.3-0.1l1.3-1.3v5c0,0.3,0.2,0.5,0.5,0.5s0.5-0.2,0.5-0.5v-5l2.1,2.1c0.1,0.1,0.2,0.1,0.3,0.1c0.1,0,0.2,0,0.3-0.1   c0.2-0.2,0.2-0.5,0-0.7l-2.1-2.1h0.8c0.3,0,0.5-0.2,0.5-0.5s-0.2-0.5-0.5-0.5h-0.8l1.1-1.1c0.2-0.2,0.2-0.5,0-0.7s-0.5-0.2-0.7,0   l-1.1,1.1V7c0-0.3-0.2-0.5-0.5-0.5S47.9,6.7,47.9,7v5.2L45.6,10c-0.2-0.2-0.5-0.2-0.7,0c-0.2,0.2-0.2,0.5,0,0.7L47.2,12.9z" fill="#e77f31" style="fill: rgb(231, 127, 49);"></path><path d="M26.7,49.3l-1-1c-0.2-0.2-0.5-0.2-0.7,0s-0.2,0.5,0,0.7l1,1l-1,1c-0.2,0.2-0.2,0.5,0,0.7c0.1,0.1,0.2,0.1,0.3,0.1   s0.2,0,0.3-0.1l1-1l1,1c0.1,0.1,0.2,0.1,0.3,0.1s0.2,0,0.3-0.1c0.2-0.2,0.2-0.5,0-0.7l-1-1l1-1c0.2-0.2,0.2-0.5,0-0.7   s-0.5-0.2-0.7,0L26.7,49.3z" fill="#e77f31" style="fill: rgb(231, 127, 49);"></path><path d="M84.9,43.7l1-1c0.2-0.2,0.2-0.5,0-0.7c-0.2-0.2-0.5-0.2-0.7,0l-1,1l-1-1c-0.2-0.2-0.5-0.2-0.7,0c-0.2,0.2-0.2,0.5,0,0.7   l1,1l-1,1c-0.2,0.2-0.2,0.5,0,0.7c0.1,0.1,0.2,0.1,0.3,0.1s0.2,0,0.3-0.1l1-1l1,1c0.1,0.1,0.2,0.1,0.3,0.1s0.2,0,0.3-0.1   c0.2-0.2,0.2-0.5,0-0.7L84.9,43.7z" fill="#e77f31" style="fill: rgb(231, 127, 49);"></path><path d="M58.6,40.9c-0.3,0-0.4,0.3-0.4,0.6c0,0.2,0.2,0.4,0.5,0.4c0,0,0.1,0,0.1,0l0.8-0.2c0.3,0,0.4-0.3,0.4-0.6   c0-0.3-0.3-0.4-0.6-0.4L58.6,40.9z" fill="#e77f31" style="fill: rgb(231, 127, 49);"></path><path d="M52.3,45.9l0.8,4.2c0,0.2,0.2,0.4,0.5,0.4c0,0,0.1,0,0.1,0c0.3,0,0.4-0.3,0.4-0.6l-0.8-4.2c0.5-0.2,1-0.5,1.4-0.9l2.1,1.5   c0.1,0.1,0.2,0.1,0.3,0.1c0.2,0,0.3-0.1,0.4-0.2c0.2-0.2,0.1-0.5-0.1-0.7l-2.1-1.5c0.2-0.5,0.4-1,0.3-1.6l1.6-0.3   c0.3,0,0.4-0.3,0.4-0.6c0-0.3-0.3-0.4-0.6-0.4l-1.6,0.3c-0.2-0.5-0.5-1-0.9-1.4l1.5-2.1c0.2-0.2,0.1-0.5-0.1-0.7   c-0.2-0.2-0.5-0.1-0.7,0.1l-1.5,2.1c-0.5-0.2-1-0.4-1.6-0.3l-0.8-4.2c0-0.3-0.3-0.4-0.6-0.4c-0.3,0-0.4,0.3-0.4,0.6l0.8,4.2   c-0.5,0.2-1,0.5-1.4,0.9l-2.1-1.5c-0.2-0.2-0.5-0.1-0.7,0.1c-0.2,0.2-0.1,0.5,0.1,0.7l2.1,1.5c-0.2,0.5-0.4,1-0.3,1.6l-4.2,0.8   c-0.3,0-0.4,0.3-0.4,0.6c0,0.2,0.2,0.4,0.5,0.4c0,0,0.1,0,0.1,0l4.2-0.8c0.2,0.5,0.5,1,0.9,1.4l-1.5,2.1c-0.2,0.2-0.1,0.5,0.1,0.7   c0.1,0.1,0.2,0.1,0.3,0.1c0.2,0,0.3-0.1,0.4-0.2l1.5-2.1c0.5,0.2,1,0.4,1.5,0.4C52.2,45.9,52.2,45.9,52.3,45.9z M53,44.8l-0.2-1.1   l0.9,0.7C53.6,44.5,53.3,44.7,53,44.8z M54.3,43.5l-0.9-0.7l1.1-0.2C54.5,42.9,54.4,43.2,54.3,43.5z M54.3,41.7l-1.1,0.2l0.7-0.9   C54.1,41.2,54.2,41.4,54.3,41.7z M53.1,40.4l-0.6,0.9l-0.2-1.1C52.5,40.2,52.8,40.3,53.1,40.4z M51.3,40.4l0.2,1.1l-0.9-0.6   C50.7,40.7,51,40.5,51.3,40.4z M50,41.7l0.9,0.6l-1.1,0.2C49.8,42.2,49.9,41.9,50,41.7z M50,43.5l1.1-0.2l-0.6,0.9   C50.2,44,50.1,43.7,50,43.5z M51.9,43.8l0.2,1.1c-0.3,0-0.6-0.1-0.9-0.2L51.9,43.8z" fill="#e77f31" style="fill: rgb(231, 127, 49);"></path><path d="M38.1,28.8c-0.3,0-0.5,0.2-0.5,0.5s0.2,0.5,0.5,0.5h1.2c0.3,0,0.5-0.2,0.5-0.5s-0.2-0.5-0.5-0.5H38.1z" fill="#e77f31" style="fill: rgb(231, 127, 49);"></path><path d="M28.4,22.6c0.3,0,0.5-0.2,0.5-0.5v-3.7c0-0.3-0.2-0.5-0.5-0.5s-0.5,0.2-0.5,0.5v3.7C27.9,22.4,28.2,22.6,28.4,22.6z" fill="#e77f31" style="fill: rgb(231, 127, 49);"></path><path d="M28.4,26.7c0.3,0,0.5-0.2,0.5-0.5v-2.7c0-0.3-0.2-0.5-0.5-0.5s-0.5,0.2-0.5,0.5v2.7C27.9,26.4,28.2,26.7,28.4,26.7z" fill="#e77f31" style="fill: rgb(231, 127, 49);"></path><path d="M27.9,40.2c0,0.3,0.2,0.5,0.5,0.5s0.5-0.2,0.5-0.5v-2.9c0-0.3-0.2-0.5-0.5-0.5s-0.5,0.2-0.5,0.5V40.2z" fill="#e77f31" style="fill: rgb(231, 127, 49);"></path><path d="M27.9,35.8c0,0.3,0.2,0.5,0.5,0.5s0.5-0.2,0.5-0.5v-0.2c0-0.3-0.2-0.5-0.5-0.5s-0.5,0.2-0.5,0.5V35.8z" fill="#e77f31" style="fill: rgb(231, 127, 49);"></path><path d="M28.4,34.7c0.3,0,0.5-0.2,0.5-0.5v-1.9c0-0.3-0.2-0.5-0.5-0.5s-0.5,0.2-0.5,0.5v1.9C27.9,34.5,28.2,34.7,28.4,34.7z" fill="#e77f31" style="fill: rgb(231, 127, 49);"></path><path d="M19.6,28.8h-2.1c-0.3,0-0.5,0.2-0.5,0.5s0.2,0.5,0.5,0.5h2.1c0.3,0,0.5-0.2,0.5-0.5S19.9,28.8,19.6,28.8z" fill="#e77f31" style="fill: rgb(231, 127, 49);"></path><path d="M25.8,29.3c0-0.3-0.2-0.5-0.5-0.5h-3.8c-0.3,0-0.5,0.2-0.5,0.5s0.2,0.5,0.5,0.5h3.8C25.6,29.7,25.8,29.5,25.8,29.3z" fill="#e77f31" style="fill: rgb(231, 127, 49);"></path><path d="M31.5,28.8c-0.3,0-0.5,0.2-0.5,0.5s0.2,0.5,0.5,0.5h4.1c0.3,0,0.5-0.2,0.5-0.5s-0.2-0.5-0.5-0.5H31.5z" fill="#e77f31" style="fill: rgb(231, 127, 49);"></path><path d="M30.6,27.6c0.1,0,0.2,0,0.3-0.1l3.8-3.8c0.2-0.2,0.2-0.5,0-0.7c-0.2-0.2-0.5-0.2-0.7,0l-3.8,3.8c-0.2,0.2-0.2,0.5,0,0.7   C30.4,27.5,30.5,27.6,30.6,27.6z" fill="#e77f31" style="fill: rgb(231, 127, 49);"></path><path d="M26.6,31.1c-0.2-0.2-0.5-0.2-0.7,0l-3.8,3.8c-0.2,0.2-0.2,0.5,0,0.7c0.1,0.1,0.2,0.1,0.3,0.1c0.1,0,0.2,0,0.3-0.1l3.8-3.8   C26.8,31.6,26.8,31.3,26.6,31.1z" fill="#e77f31" style="fill: rgb(231, 127, 49);"></path><path d="M25.9,27.4c0.1,0.1,0.2,0.1,0.3,0.1c0.1,0,0.2,0,0.3-0.1c0.2-0.2,0.2-0.5,0-0.7l-3.8-3.8c-0.2-0.2-0.5-0.2-0.7,0   c-0.2,0.2-0.2,0.5,0,0.7L25.9,27.4z" fill="#e77f31" style="fill: rgb(231, 127, 49);"></path><path d="M71,64.8c-0.3,0-0.5,0.2-0.5,0.5l0,1.2c0,0.3,0.2,0.5,0.5,0.5c0,0,0,0,0,0c0.3,0,0.5-0.2,0.5-0.5l0-1.2   C71.5,65.1,71.3,64.8,71,64.8z" fill="#e77f31" style="fill: rgb(231, 127, 49);"></path><path d="M82.2,55.5l-3.7-0.1c0,0,0,0,0,0c-0.3,0-0.5,0.2-0.5,0.5c0,0.3,0.2,0.5,0.5,0.5l3.7,0.1c0,0,0,0,0,0c0.3,0,0.5-0.2,0.5-0.5   C82.7,55.7,82.5,55.5,82.2,55.5z" fill="#e77f31" style="fill: rgb(231, 127, 49);"></path><path d="M77,56.3C77,56.3,77,56.3,77,56.3c0.3,0,0.5-0.2,0.5-0.5c0-0.3-0.2-0.5-0.5-0.5l-2.6-0.1c0,0,0,0,0,0   c-0.3,0-0.5,0.2-0.5,0.5c0,0.3,0.2,0.5,0.5,0.5L77,56.3z" fill="#e77f31" style="fill: rgb(231, 127, 49);"></path><path d="M64.7,55c-0.3,0-0.5,0.2-0.5,0.5c0,0.3,0.2,0.5,0.5,0.5l0.2,0c0,0,0,0,0,0c0.3,0,0.5-0.2,0.5-0.5c0-0.3-0.2-0.5-0.5-0.5   L64.7,55z" fill="#e77f31" style="fill: rgb(231, 127, 49);"></path><path d="M66.3,55c-0.3,0-0.5,0.2-0.5,0.5c0,0.3,0.2,0.5,0.5,0.5l1.4,0.1c0,0,0,0,0,0c0.3,0,0.5-0.2,0.5-0.5c0-0.3-0.2-0.5-0.5-0.5   L66.3,55z" fill="#e77f31" style="fill: rgb(231, 127, 49);"></path><path d="M71.5,45.3c-0.3,0-0.5,0.2-0.5,0.5l-0.1,6.8c0,0.3,0.2,0.5,0.5,0.5c0,0,0,0,0,0c0.3,0,0.5-0.2,0.5-0.5l0.1-6.8   C72,45.5,71.7,45.3,71.5,45.3C71.5,45.3,71.5,45.3,71.5,45.3z" fill="#e77f31" style="fill: rgb(231, 127, 49);"></path><path d="M71.2,59.2c-0.3,0-0.5,0.2-0.5,0.5l-0.1,3.1c0,0.3,0.2,0.5,0.5,0.5c0,0,0,0,0,0c0.3,0,0.5-0.2,0.5-0.5l0.1-3.1   C71.7,59.5,71.5,59.2,71.2,59.2z" fill="#e77f31" style="fill: rgb(231, 127, 49);"></path><path d="M73.7,57.6c-0.2-0.2-0.5-0.2-0.7,0c-0.2,0.2-0.2,0.5,0,0.7l3.7,3.9c0.1,0.1,0.2,0.2,0.4,0.2c0.1,0,0.2,0,0.3-0.1   c0.2-0.2,0.2-0.5,0-0.7L73.7,57.6z" fill="#e77f31" style="fill: rgb(231, 127, 49);"></path><path d="M69.2,53.9c0.1,0,0.2,0,0.3-0.1c0.2-0.2,0.2-0.5,0-0.7l-2.9-3c-0.2-0.2-0.5-0.2-0.7,0s-0.2,0.5,0,0.7l2.9,3   C68.9,53.9,69,53.9,69.2,53.9z" fill="#e77f31" style="fill: rgb(231, 127, 49);"></path><path d="M77.1,49.5l-3.9,3.7c-0.2,0.2-0.2,0.5,0,0.7c0.1,0.1,0.2,0.2,0.4,0.2c0.1,0,0.2,0,0.3-0.1l3.9-3.7c0.2-0.2,0.2-0.5,0-0.7   C77.6,49.3,77.3,49.3,77.1,49.5z" fill="#e77f31" style="fill: rgb(231, 127, 49);"></path><path d="M35,64.6c-0.5,0.2-0.7,0.8-0.4,1.3c3.5,7.2,5.4,16.2,5.4,26.2c0,0.5,0.4,1,1,1s1-0.4,1-1c0-10.2-1.9-19.6-5.6-27   C36.1,64.5,35.5,64.3,35,64.6z" fill="#e77f31" style="fill: rgb(231, 127, 49);"></path><path d="M28.2,65.2l-3.7,0.1c-0.3,0-0.5,0.2-0.5,0.5c0,0.3,0.2,0.5,0.5,0.5c0,0,0,0,0,0l3.7-0.1c0.3,0,0.5-0.2,0.5-0.5   C28.7,65.4,28.5,65.2,28.2,65.2z" fill="#e77f31" style="fill: rgb(231, 127, 49);"></path><path d="M32.3,65.2l-2.7,0c-0.3,0-0.5,0.2-0.5,0.5c0,0.3,0.2,0.5,0.5,0.5c0,0,0,0,0,0l2.7,0c0.3,0,0.5-0.2,0.5-0.5   C32.7,65.4,32.5,65.2,32.3,65.2C32.3,65.2,32.3,65.2,32.3,65.2z" fill="#e77f31" style="fill: rgb(231, 127, 49);"></path><path d="M41.9,65l-0.2,0c-0.3,0-0.5,0.2-0.5,0.5c0,0.3,0.2,0.5,0.5,0.5c0,0,0,0,0,0l0.2,0c0.3,0,0.5-0.2,0.5-0.5   C42.4,65.2,42.2,65,41.9,65z" fill="#e77f31" style="fill: rgb(231, 127, 49);"></path><path d="M40.3,65l-1.4,0c-0.3,0-0.5,0.2-0.5,0.5c0,0.3,0.2,0.5,0.5,0.5c0,0,0,0,0,0l1.4,0c0.3,0,0.5-0.2,0.5-0.5S40.6,65,40.3,65z" fill="#e77f31" style="fill: rgb(231, 127, 49);"></path><path d="M35.3,63C35.3,63,35.3,63,35.3,63c0.3,0,0.5-0.2,0.5-0.5l0-6.8c0-0.3-0.2-0.5-0.5-0.5c0,0,0,0,0,0c-0.3,0-0.5,0.2-0.5,0.5   l0,6.8C34.8,62.8,35,63,35.3,63z" fill="#e77f31" style="fill: rgb(231, 127, 49);"></path><path d="M32.8,67.5l-3.8,3.9c-0.2,0.2-0.2,0.5,0,0.7c0.1,0.1,0.2,0.1,0.3,0.1c0.1,0,0.3,0,0.4-0.1l3.8-3.9c0.2-0.2,0.2-0.5,0-0.7   C33.3,67.3,33,67.3,32.8,67.5z" fill="#e77f31" style="fill: rgb(231, 127, 49);"></path><path d="M40.7,60c-0.2-0.2-0.5-0.2-0.7,0l-2.9,3c-0.2,0.2-0.2,0.5,0,0.7c0.1,0.1,0.2,0.1,0.3,0.1c0.1,0,0.3,0,0.4-0.1l2.9-3   C40.9,60.5,40.9,60.2,40.7,60z" fill="#e77f31" style="fill: rgb(231, 127, 49);"></path><path d="M33.1,64c0.1,0,0.3,0,0.4-0.1c0.2-0.2,0.2-0.5,0-0.7l-3.9-3.8c-0.2-0.2-0.5-0.2-0.7,0c-0.2,0.2-0.2,0.5,0,0.7l3.9,3.8   C32.9,63.9,33,64,33.1,64z" fill="#e77f31" style="fill: rgb(231, 127, 49);"></path></g></g></svg>